<svg width="432" height="403" viewBox="0 0 432 403" fill="none" xmlns="http://www.w3.org/2000/svg">
<ellipse cx="211.5" cy="154.5" rx="91.5" ry="92.5" fill="url(#paint0_linear_1_2)"/>
<path d="M203.5 207.5L176 221.5L198 219.5L196.5 229L210.5 218L226.5 229L224.5 219.5L246.5 221.5L219.5 207.5V183.5L228 169L243 164.5L256.5 173L273 170.5L283.5 173L274.5 164.5L258 166L243 155L228 156.5L219.5 161V150L230.5 136L246.5 139.5L263 127L246.5 130.5L228 125L219.5 133V118L224.5 112.5L235.5 110L222.5 106L210.5 114.5L198 106L187 110L198 112.5L203.5 118V133L194.5 125L176 130.5L160 127L176 139.5L193 136L203.5 150.5V161L196.5 156.5L179.5 155L164.5 166L148 164.5L139 173L149.5 170.5L167 173L179.5 164.5L193 169L203.5 183.5V207.5Z" fill="url(#paint1_linear_1_2)"/>
<path d="M223 80L227 78.5L228.5 83L225.5 91L222 92L224.5 84L220 91L218.5 87L223 80Z" fill="url(#paint2_linear_1_2)"/>
<path d="M227 102.5V98L233 94H237.5V98L233 103.5H228.5L234 97L227 102.5Z" fill="url(#paint3_linear_1_2)"/>
<path d="M243.5 105.5V100L251.5 95H256.5L256 100L250.5 107.5L245.5 106.5L252.5 99L243.5 105.5Z" fill="url(#paint4_linear_1_2)"/>
<path d="M253.5 124L251.5 120.5L256 114L260 113L261 117.5L258.5 124.5H255L257.5 117.5L253.5 124Z" fill="url(#paint5_linear_1_2)"/>
<path d="M267 124V120L274 117L279 117.5L277.5 122L271.5 126.5L268 125L274 120.5L267 124Z" fill="url(#paint6_linear_1_2)"/>
<path d="M236.5 125L232 122.5L240 117L231 121.5V116L240 113L245.5 113.5L243.5 118.5L236.5 125Z" fill="url(#paint7_linear_1_2)"/>
<path d="M264 130.5L261 133L268 136.5L260.5 134.5L261 138.5L269 140L272.5 138.5L271 134.5L264 130.5Z" fill="url(#paint8_linear_1_2)"/>
<path d="M255.5 145.5L261 146L259.5 151L252 157L247.5 155.5L255 149.5L246.5 154V148.5L255.5 145.5Z" fill="url(#paint9_linear_1_2)"/>
<path d="M230.5 143L233.5 141L235.5 144L234 152L230.5 152.5L232 146L229 152.5L226.5 149.5L230.5 143Z" fill="url(#paint10_linear_1_2)"/>
<path d="M238 173.5L240.5 169.5L245 177L241.5 168.5L246.5 169.5L249 178L248 182.5L243.5 181L238 173.5Z" fill="url(#paint11_linear_1_2)"/>
<path d="M264.5 179V174.5L271 180L266 173.5L270 173L274.5 179V183.5H271L264.5 179Z" fill="url(#paint12_linear_1_2)"/>
<path d="M274 156.5L274.5 161L282 157.5L275.5 162.5L279.5 163.5L285 159L286.5 154H281.5L274 156.5Z" fill="url(#paint13_linear_1_2)"/>
<path d="M176 169.5L180.5 168.5L177 177L182 169.5L184.5 173.5L179 180L174 182.5L173 178L176 169.5Z" fill="url(#paint14_linear_1_2)"/>
<path d="M152 173.5H156.5L151 180L157.5 175L158 179L152.5 183.5H147.5V180L152 173.5Z" fill="url(#paint15_linear_1_2)"/>
<path d="M143 163.5L146.5 162L140 157L147.5 160.5V157L140 154H135.5L137 158L143 163.5Z" fill="url(#paint16_linear_1_2)"/>
<path d="M162.5 151L161 146L166.5 145L175.5 148.5V153.5L167 149.5L174.5 155L170.5 157L162.5 151Z" fill="url(#paint17_linear_1_2)"/>
<path d="M187 145L188.5 141L192 143L195.5 149.5L193.5 152.5L190 146L192 153.5L188.5 152.5L187 145Z" fill="url(#paint18_linear_1_2)"/>
<path d="M158.652 130L162 133L155 136L162.5 134.5L161 138L153.5 140L149.5 138L151 134.5L158.652 130Z" fill="url(#paint19_linear_1_2)"/>
<path d="M151 127L155 125L148.5 120.5L155 124V120.5L148.5 117H143L144.5 120.5L151 127Z" fill="url(#paint20_linear_1_2)"/>
<path d="M161 117.5L162 113L166.5 114L170.5 120.5L169.5 124L164 117.5L168 124.5H164L161 117.5Z" fill="url(#paint21_linear_1_2)"/>
<path d="M178 118.5L177 114L182 113L191 116V121.5L182 117L190 122.5L186 124.5L178 118.5Z" fill="url(#paint22_linear_1_2)"/>
<path d="M172 107.5L177 106.5L170.5 99L178 105L179 100L170.5 95H165.5L166.5 100L172 107.5Z" fill="url(#paint23_linear_1_2)"/>
<path d="M184.5 98V93.5L189.5 94L195.5 98L195 102L188.5 97L193.5 103.5L190 104.096L184.5 98Z" fill="url(#paint24_linear_1_2)"/>
<path d="M207.5 95L210.5 92L214 95.5L216.5 105L211.5 108L211 98.5L210 108.153L206 105L207.5 95Z" fill="url(#paint25_linear_1_2)"/>
<path d="M203 91L197.5 84L201.5 92L197 91.5L194 83L195.5 78.5L199.5 80L204.5 87.5L203 91Z" fill="url(#paint26_linear_1_2)"/>
<defs>
<linearGradient id="paint0_linear_1_2" x1="211.5" y1="62" x2="211.5" y2="247" gradientUnits="userSpaceOnUse">
<stop stop-color="#02B88F"/>
<stop offset="0.484375" stop-color="#02B88F" stop-opacity="0.916667"/>
<stop offset="1" stop-color="#175245"/>
</linearGradient>
<linearGradient id="paint1_linear_1_2" x1="211.25" y1="106" x2="211.25" y2="229" gradientUnits="userSpaceOnUse">
<stop offset="0.354167" stop-color="white"/>
</linearGradient>
<linearGradient id="paint2_linear_1_2" x1="211" y1="78.5" x2="211" y2="183.5" gradientUnits="userSpaceOnUse">
<stop stop-color="#33FE2F"/>
<stop offset="1" stop-color="#FDE617"/>
</linearGradient>
<linearGradient id="paint3_linear_1_2" x1="211" y1="78.5" x2="211" y2="183.5" gradientUnits="userSpaceOnUse">
<stop stop-color="#33FE2F"/>
<stop offset="1" stop-color="#FDE617"/>
</linearGradient>
<linearGradient id="paint4_linear_1_2" x1="211" y1="78.5" x2="211" y2="183.5" gradientUnits="userSpaceOnUse">
<stop stop-color="#33FE2F"/>
<stop offset="1" stop-color="#FDE617"/>
</linearGradient>
<linearGradient id="paint5_linear_1_2" x1="211" y1="78.5" x2="211" y2="183.5" gradientUnits="userSpaceOnUse">
<stop stop-color="#33FE2F"/>
<stop offset="1" stop-color="#FDE617"/>
</linearGradient>
<linearGradient id="paint6_linear_1_2" x1="211" y1="78.5" x2="211" y2="183.5" gradientUnits="userSpaceOnUse">
<stop stop-color="#33FE2F"/>
<stop offset="1" stop-color="#FDE617"/>
</linearGradient>
<linearGradient id="paint7_linear_1_2" x1="211" y1="78.5" x2="211" y2="183.5" gradientUnits="userSpaceOnUse">
<stop stop-color="#33FE2F"/>
<stop offset="1" stop-color="#FDE617"/>
</linearGradient>
<linearGradient id="paint8_linear_1_2" x1="211" y1="78.5" x2="211" y2="183.5" gradientUnits="userSpaceOnUse">
<stop stop-color="#33FE2F"/>
<stop offset="1" stop-color="#FDE617"/>
</linearGradient>
<linearGradient id="paint9_linear_1_2" x1="211" y1="78.5" x2="211" y2="183.5" gradientUnits="userSpaceOnUse">
<stop stop-color="#33FE2F"/>
<stop offset="1" stop-color="#FDE617"/>
</linearGradient>
<linearGradient id="paint10_linear_1_2" x1="211" y1="78.5" x2="211" y2="183.5" gradientUnits="userSpaceOnUse">
<stop stop-color="#33FE2F"/>
<stop offset="1" stop-color="#FDE617"/>
</linearGradient>
<linearGradient id="paint11_linear_1_2" x1="211" y1="78.5" x2="211" y2="183.5" gradientUnits="userSpaceOnUse">
<stop stop-color="#33FE2F"/>
<stop offset="1" stop-color="#FDE617"/>
</linearGradient>
<linearGradient id="paint12_linear_1_2" x1="211" y1="78.5" x2="211" y2="183.5" gradientUnits="userSpaceOnUse">
<stop stop-color="#33FE2F"/>
<stop offset="1" stop-color="#FDE617"/>
</linearGradient>
<linearGradient id="paint13_linear_1_2" x1="211" y1="78.5" x2="211" y2="183.5" gradientUnits="userSpaceOnUse">
<stop stop-color="#33FE2F"/>
<stop offset="1" stop-color="#FDE617"/>
</linearGradient>
<linearGradient id="paint14_linear_1_2" x1="211" y1="78.5" x2="211" y2="183.5" gradientUnits="userSpaceOnUse">
<stop stop-color="#33FE2F"/>
<stop offset="1" stop-color="#FDE617"/>
</linearGradient>
<linearGradient id="paint15_linear_1_2" x1="211" y1="78.5" x2="211" y2="183.5" gradientUnits="userSpaceOnUse">
<stop stop-color="#33FE2F"/>
<stop offset="1" stop-color="#FDE617"/>
</linearGradient>
<linearGradient id="paint16_linear_1_2" x1="211" y1="78.5" x2="211" y2="183.5" gradientUnits="userSpaceOnUse">
<stop stop-color="#33FE2F"/>
<stop offset="1" stop-color="#FDE617"/>
</linearGradient>
<linearGradient id="paint17_linear_1_2" x1="211" y1="78.5" x2="211" y2="183.5" gradientUnits="userSpaceOnUse">
<stop stop-color="#33FE2F"/>
<stop offset="1" stop-color="#FDE617"/>
</linearGradient>
<linearGradient id="paint18_linear_1_2" x1="211" y1="78.5" x2="211" y2="183.5" gradientUnits="userSpaceOnUse">
<stop stop-color="#33FE2F"/>
<stop offset="1" stop-color="#FDE617"/>
</linearGradient>
<linearGradient id="paint19_linear_1_2" x1="211" y1="78.5" x2="211" y2="183.5" gradientUnits="userSpaceOnUse">
<stop stop-color="#33FE2F"/>
<stop offset="1" stop-color="#FDE617"/>
</linearGradient>
<linearGradient id="paint20_linear_1_2" x1="211" y1="78.5" x2="211" y2="183.5" gradientUnits="userSpaceOnUse">
<stop stop-color="#33FE2F"/>
<stop offset="1" stop-color="#FDE617"/>
</linearGradient>
<linearGradient id="paint21_linear_1_2" x1="211" y1="78.5" x2="211" y2="183.5" gradientUnits="userSpaceOnUse">
<stop stop-color="#33FE2F"/>
<stop offset="1" stop-color="#FDE617"/>
</linearGradient>
<linearGradient id="paint22_linear_1_2" x1="211" y1="78.5" x2="211" y2="183.5" gradientUnits="userSpaceOnUse">
<stop stop-color="#33FE2F"/>
<stop offset="1" stop-color="#FDE617"/>
</linearGradient>
<linearGradient id="paint23_linear_1_2" x1="211" y1="78.5" x2="211" y2="183.5" gradientUnits="userSpaceOnUse">
<stop stop-color="#33FE2F"/>
<stop offset="1" stop-color="#FDE617"/>
</linearGradient>
<linearGradient id="paint24_linear_1_2" x1="211" y1="78.5" x2="211" y2="183.5" gradientUnits="userSpaceOnUse">
<stop stop-color="#33FE2F"/>
<stop offset="1" stop-color="#FDE617"/>
</linearGradient>
<linearGradient id="paint25_linear_1_2" x1="211" y1="78.5" x2="211" y2="183.5" gradientUnits="userSpaceOnUse">
<stop stop-color="#33FE2F"/>
<stop offset="1" stop-color="#FDE617"/>
</linearGradient>
<linearGradient id="paint26_linear_1_2" x1="211" y1="78.5" x2="211" y2="183.5" gradientUnits="userSpaceOnUse">
<stop stop-color="#33FE2F"/>
<stop offset="1" stop-color="#FDE617"/>
</linearGradient>
</defs>
</svg>
